# xmcd CD database file generated by OrangeCD 5.2
#
# Track frame offsets:
#	150
#	9780
#	22500
#	35880
#	49082
#	65740
#	76322
#	90082
#	100607
#	111545
#	122100
#	139237
#	149382
#	160200
#	172352
#	183647
#	197982
#	217772
#	233825
#	252802
#	263340
#	276512
#
# Disc length: 3842 seconds
#
# Revision: 1
# Processed by: cddbd v1.5.2PL0 Copyright (c) Steve Scherf et al.
# Submitted via: OrangeCD 5.2
#
DISCID=330f0016
DTITLE=Various Artist - John Laws  44 Years - 44 Country Hits
DYEAR=1998
DGENRE=Oldies
TTITLE0=Johnny Cash - Ballad Of A Teenage Queen
TTITLE1=Patsy Cline - I Fall To Pieces
TTITLE2=Waylon Jennings and Willie Nelson - Good Hearted Woman
TTITLE3=Lynn Anderson - Rose Garden
TTITLE4=Keith Whitley - When You Say Nothing At All
TTITLE5=Buck Owens - Act Naturally
TTITLE6=Glen Campbell - Wichita Lineman
TTITLE7=Webb Pierce - In The Jailhouse Now
TTITLE8=Roger Miller - King Of The Road
TTITLE9=Jim Reeves - He'll Have To Go
TTITLE10=C. W. McCall - Convoy
TTITLE11=Conway Twitty - It's Only Make Believe
TTITLE12=Johnny Cash - Daddy Sang Bass
TTITLE13=Slim Dusty - When The Rain Tumbles Down In July
TTITLE14=Don Gibson - Lonesome Me
TTITLE15=Jo Stafford - You Belong To Me
TTITLE16=Marty Robbins - El Paso
TTITLE17=Randy Travis - Forever and Ever Amen
TTITLE18=Tom T. Hall - Old Dogs, Children and Watermelon Wine
TTITLE19=Oak Ridge Boys - Rythm Guitar
TTITLE20=Faron Young - It's Four In The Morning
TTITLE21=Henson Cargill - Skip A Rope
EXTD=
EXTT0=
EXTT1=
EXTT2=
EXTT3=
EXTT4=
EXTT5=
EXTT6=
EXTT7=
EXTT8=
EXTT9=
EXTT10=
EXTT11=
EXTT12=
EXTT13=
EXTT14=
EXTT15=
EXTT16=
EXTT17=
EXTT18=
EXTT19=
EXTT20=
EXTT21=
PLAYORDER=
